<?xml version="1.0" standalone="no"?>
<!DOCTYPE svg PUBLIC "-//W3C//DTD SVG 20010904//EN"
 "http://www.w3.org/TR/2001/REC-SVG-20010904/DTD/svg10.dtd">
<svg version="1.0" xmlns="http://www.w3.org/2000/svg"
 width="5100.000000pt" height="3300.000000pt" viewBox="0 0 5100.000000 3300.000000"
 preserveAspectRatio="xMidYMid meet">

<g transform="translate(0.000000,3300.000000) scale(0.100000,-0.100000)"
fill="#000000" stroke="none">
<path d="M0 16500 l0 -16500 25500 0 25500 0 0 16500 0 16500 -25500 0 -25500
0 0 -16500z m25810 12514 c29 -9 69 -26 89 -39 20 -13 2903 -2891 6407 -6397
6243 -6245 6372 -6374 6394 -6433 18 -49 21 -75 18 -145 -3 -72 -9 -94 -36
-145 -28 -52 -959 -987 -6400 -6426 -5240 -5240 -6376 -6370 -6417 -6390 -42
-20 -66 -24 -150 -24 -90 0 -106 3 -160 29 -54 26 -668 636 -6398 6365 -3486
3485 -6357 6362 -6381 6393 -79 104 -96 238 -45 361 20 46 696 726 6388 6420
3729 3731 6384 6379 6410 6395 87 51 187 64 281 36z"/>
<path d="M19897 21832 c-3194 -3194 -5807 -5812 -5807 -5817 0 -6 2615 -2625
5810 -5820 l5810 -5810 5815 5815 5815 5815 -5812 5812 c-3197 3197 -5815
5813 -5818 5813 -3 0 -2618 -2613 -5813 -5808z m7980 2405 c11 -7 55 -45 97
-85 l76 -72 0 -1475 0 -1475 -76 -72 c-42 -40 -86 -78 -97 -85 -17 -9 -199
-12 -754 -13 -402 0 -734 -3 -736 -7 -2 -5 21 -107 52 -228 l56 -220 153 -3
152 -3 0 -79 0 -80 -1085 0 -1085 0 0 80 0 80 150 0 149 0 10 38 c31 116 101
403 101 412 0 7 -225 10 -711 10 -495 0 -724 3 -755 11 -35 9 -62 29 -125 89
l-79 77 0 1469 0 1469 86 82 87 83 1056 3 c3020 7 3256 7 3278 -6z m-7898
-5842 c137 -33 242 -116 300 -239 75 -158 84 -270 78 -1032 -4 -520 -7 -609
-21 -673 -50 -215 -148 -340 -310 -393 -62 -20 -90 -23 -216 -22 -124 0 -154
3 -205 22 -163 60 -251 176 -303 397 -15 62 -17 153 -17 765 0 610 2 704 17
765 58 250 169 373 373 415 68 13 236 11 304 -5z m-1921 -532 l2 -503 108 0
108 0 88 378 c48 207 101 434 118 505 l30 127 140 0 c128 0 139 -1 134 -17
-14 -45 -226 -968 -226 -982 0 -11 15 -21 44 -29 92 -24 180 -118 218 -230 22
-65 22 -81 26 -549 l3 -483 -135 0 -136 0 0 443 c0 264 -4 457 -10 478 -20 72
-25 74 -281 77 l-229 3 0 -500 0 -501 -135 0 -135 0 0 1145 0 1146 133 -3 132
-3 3 -502z m3020 -500 l2 -1003 230 0 230 0 0 375 0 376 133 -3 132 -3 3 -512
2 -513 -500 0 -500 0 0 1145 0 1146 133 -3 132 -3 3 -1002z m2082 862 l0 -145
-330 0 -330 0 0 -350 0 -350 250 0 250 0 0 -145 0 -145 -250 0 -250 0 0 -365
0 -365 330 0 330 0 0 -140 0 -140 -465 0 -465 0 0 1145 0 1145 465 0 465 0 0
-145z m1560 135 c169 -27 286 -143 335 -329 26 -103 34 -290 35 -816 0 -692
-12 -819 -91 -951 -40 -67 -94 -113 -175 -151 l-59 -28 -372 -3 -373 -3 0
1146 0 1145 318 0 c174 0 346 -5 382 -10z m1750 -135 l0 -145 -330 0 -330 0 0
-350 0 -350 250 0 250 0 0 -145 0 -145 -250 0 -250 0 0 -365 0 -365 330 0 330
0 0 -140 0 -140 -465 0 -465 0 0 1145 0 1145 465 0 465 0 0 -145z m1220 0 l0
-145 -155 0 -155 0 0 -860 0 -860 155 0 155 0 0 -140 0 -140 -445 0 -445 0 0
140 0 140 155 0 155 0 0 860 0 860 -155 0 -155 0 0 145 0 145 445 0 445 0 0
-145z m1310 0 l0 -144 -279 -3 c-263 -3 -281 -4 -307 -23 -65 -49 -73 -147
-74 -835 0 -569 7 -703 40 -776 30 -69 59 -77 273 -82 l177 -4 0 361 0 361
135 0 135 0 0 -500 0 -500 -323 0 c-344 0 -390 5 -485 53 -51 25 -122 98 -150
154 -56 110 -56 99 -60 878 -2 503 0 744 8 799 37 255 137 366 360 400 14 2
143 4 288 5 l262 1 0 -145z m812 -357 l3 -503 265 0 265 0 3 503 2 502 135 0
135 0 0 -1145 0 -1145 -135 0 -135 0 0 500 0 500 -267 -2 -268 -3 -3 -497 -2
-498 -130 0 -130 0 0 1145 0 1145 130 0 130 0 2 -502z m1944 487 c51 -15 106
-59 128 -104 29 -56 59 -171 136 -511 117 -514 111 -457 117 -1102 l5 -558
-136 0 -136 0 -2 323 -3 322 -270 0 -270 0 -3 -322 -2 -323 -136 0 -135 0 4
568 c4 648 -3 571 111 1107 78 368 102 457 141 516 26 40 80 78 129 89 58 14
269 11 322 -5z m1059 -26 c24 -24 107 -186 290 -569 141 -294 260 -539 265
-544 7 -7 10 201 10 572 l0 582 130 0 130 0 0 -1145 0 -1145 -130 0 -130 0 0
235 0 235 -267 557 -268 557 -3 -792 -2 -792 -135 0 -135 0 0 1083 0 1084 23
43 c46 88 155 107 222 39z m1635 -3094 c38 -19 68 -59 80 -106 22 -82 -33
-176 -117 -198 -29 -8 -2469 -10 -8725 -9 l-8684 3 -41 27 c-96 63 -98 210 -4
274 l36 24 8713 0 c7673 0 8716 -2 8742 -15z m-6665 -1579 c52 -22 83 -52 106
-101 16 -35 19 -67 19 -265 0 -197 -3 -230 -19 -265 -22 -48 -66 -88 -118
-107 -60 -21 -276 -18 -335 5 -56 22 -103 72 -117 124 -14 49 -14 437 -1 485
20 71 78 120 163 138 67 14 256 5 302 -14z m-9185 -31 l0 -45 -197 -2 -198 -3
-3 -137 -3 -138 146 0 145 0 0 -45 0 -45 -145 0 -145 0 0 -150 0 -150 -45 0
-45 0 0 380 0 380 245 0 245 0 0 -45z m390 -258 l0 -303 28 -27 c50 -48 237
-61 313 -21 59 30 59 32 59 356 l0 298 50 0 50 0 0 -287 c0 -177 -4 -303 -11
-328 -16 -57 -51 -99 -106 -126 -43 -22 -62 -24 -178 -24 -102 0 -140 4 -177
18 -56 22 -103 72 -117 124 -7 23 -11 157 -11 331 l0 292 50 0 50 0 0 -303z
m962 -29 l3 -333 180 0 180 0 3 123 3 122 44 0 45 0 0 -170 0 -170 -275 0
-275 0 0 380 0 380 45 0 45 0 2 -332z m888 -3 l0 -335 183 2 182 3 3 123 3
122 44 0 45 0 0 -170 0 -170 -275 0 -275 0 0 380 0 380 45 0 45 0 0 -335z
m1540 290 l0 -45 -174 0 c-160 0 -175 -2 -200 -21 -24 -19 -26 -26 -26 -100 0
-94 -16 -84 187 -124 78 -15 156 -36 173 -46 48 -29 62 -76 58 -185 -4 -108
-18 -136 -88 -171 -42 -22 -56 -23 -247 -23 l-203 0 0 44 0 45 201 3 201 3 24
28 c19 23 24 39 24 86 0 88 -8 94 -185 130 -82 17 -163 36 -178 43 -39 15 -58
58 -64 142 -9 115 20 185 89 219 27 14 68 17 221 17 l187 0 0 -45z m890 0 l0
-45 -130 0 -130 0 0 -335 0 -335 -50 0 -50 0 0 335 0 335 -130 0 -130 0 0 45
0 45 310 0 310 0 0 -45z m645 33 c33 -15 51 -45 121 -208 l59 -135 3 -202 4
-203 -46 0 -45 0 -3 108 -3 107 -207 3 -208 2 0 -110 0 -110 -50 0 -50 0 0
153 c0 193 9 246 66 387 62 156 80 187 112 204 34 19 209 22 247 4z m1015 -32
l0 -44 -169 -3 c-154 -4 -172 -6 -198 -25 l-28 -21 -3 -237 c-1 -145 2 -244 8
-255 15 -29 92 -41 250 -41 l140 0 0 -46 0 -46 -182 4 c-206 3 -243 13 -285
76 -30 45 -35 105 -31 347 3 171 6 216 20 240 42 79 91 93 311 94 l167 1 0
-44z m420 -121 l0 -166 107 3 106 3 72 160 71 160 52 3 c29 2 52 1 52 -1 0 -3
-29 -68 -64 -145 -88 -192 -85 -178 -31 -186 53 -8 102 -46 121 -93 10 -22 14
-78 14 -183 l0 -150 -44 0 -45 0 -3 150 c-3 127 -6 152 -21 167 -15 16 -41 18
-202 21 l-185 4 0 -171 0 -171 -45 0 -45 0 0 380 0 380 45 0 45 0 0 -165z
m1620 120 l0 -45 -171 0 c-165 0 -202 -6 -221 -34 -4 -6 -8 -46 -8 -89 0 -92
-15 -82 187 -122 78 -15 156 -36 173 -46 48 -29 62 -76 58 -185 -4 -108 -18
-136 -88 -171 -42 -22 -56 -23 -247 -23 l-203 0 0 44 0 45 201 3 201 3 24 28
c19 23 24 39 24 86 0 88 -8 94 -185 130 -82 17 -162 36 -177 42 -42 17 -58 52
-65 137 -9 121 18 191 89 225 27 14 68 17 221 17 l187 0 0 -45z m1800 0 l0
-45 -197 -2 -198 -3 -3 -137 -3 -138 146 0 145 0 0 -45 0 -45 -145 0 -145 0 0
-150 0 -150 -45 0 -45 0 0 380 0 380 245 0 245 0 0 -45z m840 0 l0 -45 -130 0
-130 0 0 -335 0 -335 -50 0 -50 0 0 335 0 335 -130 0 -130 0 0 45 0 45 310 0
310 0 0 -45z m380 -211 c0 -198 4 -271 16 -326 9 -38 19 -66 23 -61 5 4 32 63
61 131 64 148 78 162 165 162 83 0 98 -16 166 -175 30 -68 57 -125 60 -125 4
0 14 37 23 83 12 62 16 140 16 325 l0 242 46 0 45 0 -4 -287 c-3 -251 -6 -297
-24 -362 -23 -82 -47 -111 -94 -111 -61 0 -74 15 -141 169 -61 138 -66 146
-94 149 -30 3 -31 1 -94 -143 -35 -81 -72 -152 -84 -161 -11 -7 -37 -14 -56
-14 -52 0 -75 30 -100 130 -18 72 -22 126 -27 358 l-6 272 52 0 51 0 0 -256z
m1375 244 c33 -15 51 -45 121 -208 l59 -135 3 -202 4 -203 -46 0 -45 0 -3 108
-3 107 -207 3 -208 2 0 -110 0 -110 -50 0 -50 0 0 153 c0 193 9 246 66 387 62
156 80 187 112 204 34 19 209 22 247 4z m979 -22 c58 -44 68 -79 65 -223 l-3
-124 28 -19 c60 -38 70 -71 74 -222 l4 -138 -51 0 -51 0 0 128 c0 176 13 166
-231 170 l-189 3 0 -150 0 -151 -45 0 -45 0 0 381 0 380 203 -3 204 -3 37 -29z
m1016 -11 l0 -45 -207 -2 -208 -3 -3 -112 -3 -113 161 0 160 0 0 -45 0 -45
-160 0 -161 0 3 -127 3 -128 208 -3 207 -2 0 -45 0 -45 -255 0 -255 0 0 380 0
380 255 0 255 0 0 -45z m-11640 -2595 l0 -50 -280 0 -280 0 0 -175 0 -175 213
-2 212 -3 3 -47 3 -48 -215 0 -216 0 0 -180 0 -180 280 0 280 0 0 -50 0 -50
-325 0 -325 0 0 505 0 505 325 0 325 0 0 -50z m839 -275 c157 -176 288 -321
293 -323 4 -2 8 143 8 322 l0 326 45 0 45 0 0 -505 0 -505 -45 0 -45 0 0 98 0
98 -287 324 -288 323 -3 -421 -2 -422 -50 0 -50 0 0 487 c0 444 1 488 17 505
11 13 27 18 47 16 27 -3 72 -49 315 -323z m1551 276 l0 -50 -233 -3 c-343 -4
-322 21 -322 -398 0 -339 1 -347 65 -384 32 -19 55 -21 253 -24 l217 -4 0 166
0 166 50 0 50 0 0 -216 0 -216 -272 4 c-232 4 -280 7 -321 22 -62 23 -113 74
-127 126 -7 26 -10 157 -8 372 3 370 5 382 72 433 58 44 122 54 359 54 l217 1
0 -49z m1150 -1 l0 -50 -130 0 -130 0 0 -405 0 -405 130 0 130 0 0 -50 0 -50
-310 0 -310 0 0 50 0 50 130 0 130 0 0 405 0 405 -130 0 -130 0 0 50 0 50 310
0 310 0 0 -50z m850 -277 c157 -177 288 -322 293 -322 4 -1 7 145 7 324 l0
325 45 0 45 0 0 -505 0 -505 -45 0 -45 0 0 98 0 98 -287 324 -288 324 -3 -422
-2 -422 -50 0 -50 0 0 487 c0 444 1 488 17 505 11 13 27 18 47 16 27 -3 72
-49 316 -325z m1570 277 l0 -50 -280 0 -280 0 0 -175 0 -175 213 -2 212 -3 3
-47 3 -48 -215 0 -216 0 0 -180 0 -180 280 0 280 0 0 -50 0 -50 -325 0 -325 0
0 505 0 505 325 0 325 0 0 -50z m1130 0 l0 -50 -280 0 -280 0 0 -175 0 -175
213 -2 212 -3 3 -47 3 -48 -215 0 -216 0 0 -180 0 -180 280 0 280 0 0 -50 0
-50 -325 0 -325 0 0 505 0 505 325 0 325 0 0 -50z m985 39 c51 -14 116 -81
133 -136 17 -56 16 -268 -2 -326 l-14 -46 45 -22 c88 -43 113 -117 113 -335
l0 -134 -50 0 -50 0 0 149 c0 254 12 245 -337 249 l-263 3 0 -200 0 -201 -50
0 -50 0 0 505 0 505 243 0 c145 0 258 -5 282 -11z"/>
<path d="M23604 24076 c-17 -8 -40 -26 -52 -41 l-22 -28 0 -1128 0 -1129 2185
0 2185 0 0 1116 c0 1237 4 1161 -65 1204 -32 20 -44 20 -2116 20 -1722 -1
-2089 -3 -2115 -14z"/>
<path d="M23528 21428 c-4 -203 0 -223 51 -270 l40 -38 2083 0 c2008 0 2085 1
2118 19 19 10 45 33 58 51 21 31 22 43 22 216 l0 184 -2185 0 -2184 0 -3 -162z
m2249 51 c62 -30 75 -54 71 -130 -3 -61 -4 -64 -46 -96 -52 -40 -102 -43 -163
-12 -50 25 -73 74 -66 137 5 48 31 82 81 106 42 21 72 20 123 -5z"/>
<path d="M25201 20923 c-74 -281 -101 -407 -89 -414 18 -12 1179 -11 1197 0
11 7 5 47 -40 227 l-54 219 -502 3 -502 2 -10 -37z"/>
<path d="M19733 18120 c-90 -18 -116 -44 -155 -151 l-23 -64 0 -685 0 -685 23
-65 c32 -88 54 -115 109 -136 50 -19 170 -25 235 -11 48 10 93 48 120 100 43
85 47 155 47 797 0 642 -4 712 -47 797 -32 61 -71 89 -145 102 -72 12 -103 13
-164 1z"/>
<path d="M24290 17219 l0 -860 208 3 c237 3 249 7 283 82 32 74 39 203 39 771
0 587 -6 699 -44 781 -36 79 -54 84 -290 84 l-196 0 0 -861z"/>
<path d="M31491 17993 c-104 -445 -186 -918 -168 -966 6 -16 29 -17 274 -15
l268 3 -3 80 c-1 44 -7 114 -13 155 -11 77 -147 684 -174 778 l-16 52 -73 0
-74 0 -21 -87z"/>
<path d="M27511 13580 c-25 -5 -57 -22 -73 -37 l-28 -27 0 -226 0 -226 28 -27
c52 -50 233 -61 320 -20 55 26 62 55 62 273 0 221 -7 251 -66 276 -44 19 -183
26 -243 14z"/>
<path d="M23711 13566 c-20 -24 -112 -260 -118 -304 l-6 -42 209 2 209 3 -3
35 c-4 34 -104 282 -124 308 -15 17 -152 16 -167 -2z"/>
<path d="M31161 13566 c-20 -24 -112 -260 -118 -304 l-6 -42 209 2 209 3 -3
35 c-4 34 -104 282 -124 308 -15 17 -152 16 -167 -2z"/>
<path d="M31990 13440 l0 -140 140 0 c136 0 142 1 165 25 23 22 25 32 25 110
0 48 -4 95 -10 105 -16 30 -66 40 -196 40 l-124 0 0 -140z"/>
<path d="M29370 10776 l0 -206 194 0 c107 0 206 4 221 10 45 17 57 65 53 211
-3 125 -4 129 -31 156 l-27 28 -205 3 -205 3 0 -205z"/>
</g>
</svg>
